<svg version="1.1" viewBox="0.0 0.0 1911.9265091863517 1184.2047244094488" fill="none" stroke="none" stroke-linecap="square" stroke-miterlimit="10" xmlns:xlink="http://www.w3.org/1999/xlink" xmlns="http://www.w3.org/2000/svg"><clipPath id="p.0"><path d="m0 0l1911.9265 0l0 1184.2047l-1911.9265 0l0 -1184.2047z" clip-rule="nonzero"/></clipPath><g clip-path="url(#p.0)"><path fill="#000000" fill-opacity="0.0" d="m0 0l1911.9265 0l0 1184.2047l-1911.9265 0z" fill-rule="evenodd"/><path fill="#4285f4" d="m236.69685 459.2047l-241.25984 0l241.25984 -234.07872z" fill-rule="evenodd"/><path fill="#0f9d58" d="m-3.6535432 222.0l247.65355 0l-247.65355 240.18896z" fill-rule="evenodd"/><path fill="#4285f4" d="m235.41733 226.0l238.58267 0l-238.58267 231.87402z" fill-rule="evenodd"/><path fill="#ea4335" d="m477.99213 457.86615l-242.58267 0l242.58267 -241.85828z" fill-rule="evenodd"/><path fill="#ea4335" d="m474.65485 226.91602l245.07086 0l-245.07086 231.40158z" fill-rule="evenodd"/><path fill="#f4b400" d="m719.7257 458.3176l-245.07086 0l245.07086 -231.40158z" fill-rule="evenodd"/><path fill="#0f9d58" d="m235.40746 226.91483l-239.46457 0l239.46457 -231.40158z" fill-rule="evenodd"/><path fill="#4285f4" d="m471.5013 226.91599l-236.09448 0l236.09448 -225.51181z" fill-rule="evenodd"/><path fill="#f4b400" d="m955.5197 228.8084l-238.77167 0l238.77167 -229.5433z" fill-rule="evenodd"/><path fill="#f4b400" d="m-3.2716537 -3.5774279l238.67717 0l-238.67717 234.99213z" fill-rule="evenodd"/><path fill="#0f9d58" d="m232.5328 -2.1811023l244.18896 0l-244.18896 234.80315z" fill-rule="evenodd"/><path fill="#4285f4" d="m469.9029 -0.007874016l253.44879 0l-253.44879 230.4567z" fill-rule="evenodd"/><path fill="#4285f4" d="m-3.1574802 450.09973l239.46457 0l0 145.41736l-239.46457 0z" fill-rule="evenodd"/><path fill="#ea4335" d="m235.88846 457.8609l238.67715 0l0 136.31494l-238.67715 0z" fill-rule="evenodd"/><path fill="#f4b400" d="m474.1824 457.8609l238.67715 0l0 136.31494l-238.67715 0z" fill-rule="evenodd"/><path fill="#0f9d58" d="m712.87665 451.78217l243.46454 0l0 142.39368l-243.46454 0z" fill-rule="evenodd"/><path fill="#ea4335" d="m717.34644 0l237.57483 0l-237.57483 229.07086z" fill-rule="evenodd"/><path fill="#f4b400" d="m717.4252 226.13911l237.41736 0l-237.41736 225.4803z" fill-rule="evenodd"/><path fill="#ea4335" d="m719.7323 230.55643l-249.32285 0l249.32285 -230.55118z" fill-rule="evenodd"/><path fill="#0f9d58" d="m956.3779 457.82678l-246.36218 0l246.33069 -240.53545z" fill-rule="evenodd"/><path fill="#4285f4" d="m1194.6995 457.68503l-241.25983 0l241.25983 -234.07874z" fill-rule="evenodd"/><path fill="#0f9d58" d="m954.35175 224.94489l243.46454 0l-243.46454 235.71652z" fill-rule="evenodd"/><path fill="#4285f4" d="m1193.4108 224.94489l239.4646 0l-239.4646 231.40158z" fill-rule="evenodd"/><path fill="#ea4335" d="m1432.8754 456.34647l-239.4646 0l239.4646 -231.40158z" fill-rule="evenodd"/><path fill="#ea4335" d="m1432.6575 225.39633l245.07092 0l-245.07092 231.40158z" fill-rule="evenodd"/><path fill="#f4b400" d="m1677.7284 456.7979l-245.07092 0l245.07092 -231.40158z" fill-rule="evenodd"/><path fill="#0f9d58" d="m1191.2756 226.72441l-247.27563 0l247.27563 -230.01575z" fill-rule="evenodd"/><path fill="#4285f4" d="m1429.5039 225.3963l-236.09448 0l236.09448 -225.51181z" fill-rule="evenodd"/><path fill="#f4b400" d="m1913.5223 227.28871l-238.77173 0l238.77173 -229.5433z" fill-rule="evenodd"/><path fill="#f4b400" d="m954.45667 0l233.54333 0l-233.54333 218.01575z" fill-rule="evenodd"/><path fill="#0f9d58" d="m1190.5354 -3.7007873l244.18896 0l-244.18896 234.80315z" fill-rule="evenodd"/><path fill="#4285f4" d="m1427.9055 -1.527559l253.44885 0l-253.44885 230.4567z" fill-rule="evenodd"/><path fill="#4285f4" d="m954.84515 451.61942l239.46454 0l0 142.3937l-239.46454 0z" fill-rule="evenodd"/><path fill="#ea4335" d="m1193.8923 450.26248l238.67725 0l0 142.3937l-238.67725 0z" fill-rule="evenodd"/><path fill="#f4b400" d="m1432.185 456.34122l238.67712 0l0 136.31497l-238.67712 0z" fill-rule="evenodd"/><path fill="#0f9d58" d="m1670.8793 450.26248l243.4646 0l0 142.3937l-243.4646 0z" fill-rule="evenodd"/><path fill="#ea4335" d="m1675.3491 -1.519685l237.5747 0l-237.5747 229.07086z" fill-rule="evenodd"/><path fill="#f4b400" d="m1675.4279 224.61942l237.41724 0l-237.41724 225.48032z" fill-rule="evenodd"/><path fill="#ea4335" d="m1677.7349 229.03674l-249.32275 0l249.32275 -230.55118z" fill-rule="evenodd"/><path fill="#0f9d58" d="m1914.3386 456.3071l-245.32288 0l245.29138 -240.53545z" fill-rule="evenodd"/><path fill="#0f9d58" d="m1671.584 722.96735l241.25989 0l-241.25989 234.07874z" fill-rule="evenodd"/><path fill="#4285f4" d="m1911.9343 960.17206l-247.65344 0l247.65344 -240.18896z" fill-rule="evenodd"/><path fill="#0f9d58" d="m1672.8635 956.17206l-238.58264 0l238.58264 -231.87402z" fill-rule="evenodd"/><path fill="#f4b400" d="m1430.2887 724.3059l242.58264 0l-242.58264 241.85828z" fill-rule="evenodd"/><path fill="#f4b400" d="m1433.626 955.25604l-245.0708 0l245.0708 -231.40161z" fill-rule="evenodd"/><path fill="#ea4335" d="m1188.5552 723.85443l245.0708 0l-245.0708 231.40161z" fill-rule="evenodd"/><path fill="#4285f4" d="m1672.8734 955.2572l239.46448 0l-239.46448 231.40161z" fill-rule="evenodd"/><path fill="#0f9d58" d="m1436.7795 955.25604l236.09448 0l-236.09448 225.51178z" fill-rule="evenodd"/><path fill="#ea4335" d="m952.76117 953.36365l238.77167 0l-238.77167 229.54333z" fill-rule="evenodd"/><path fill="#ea4335" d="m1911.5525 1185.7495l-238.67712 0l238.67712 -234.99219z" fill-rule="evenodd"/><path fill="#4285f4" d="m1675.748 1184.3531l-244.18896 0l244.18896 -234.80316z" fill-rule="evenodd"/><path fill="#0f9d58" d="m1438.3779 1182.1799l-253.44885 0l253.44885 -230.45673z" fill-rule="evenodd"/><path fill="#0f9d58" d="m1911.4384 732.0723l-239.4646 0l0 -145.41736l239.4646 0z" fill-rule="evenodd"/><path fill="#f4b400" d="m1672.3923 724.31116l-238.67712 0l0 -136.31494l238.67712 0z" fill-rule="evenodd"/><path fill="#ea4335" d="m1434.0984 724.31116l-238.67712 0l0 -136.31494l238.67712 0z" fill-rule="evenodd"/><path fill="#4285f4" d="m1195.4042 730.3899l-243.46454 0l0 -142.39368l243.46454 0z" fill-rule="evenodd"/><path fill="#f4b400" d="m1190.9343 1182.172l-237.57477 0l237.57477 -229.0708z" fill-rule="evenodd"/><path fill="#ea4335" d="m1190.8556 956.03296l-237.4173 0l237.4173 -225.48035z" fill-rule="evenodd"/><path fill="#f4b400" d="m1188.5486 951.6156l249.32275 0l-249.32275 230.55115z" fill-rule="evenodd"/><path fill="#4285f4" d="m951.9029 724.3453l246.36224 0l-246.33075 240.5354z" fill-rule="evenodd"/><path fill="#0f9d58" d="m713.58136 724.487l241.25983 0l-241.25983 234.07874z" fill-rule="evenodd"/><path fill="#4285f4" d="m953.92914 957.2272l-243.4646 0l243.4646 -235.71655z" fill-rule="evenodd"/><path fill="#0f9d58" d="m714.87006 957.2272l-239.46454 0l239.46454 -231.40161z" fill-rule="evenodd"/><path fill="#f4b400" d="m475.40552 725.82556l239.46454 0l-239.46454 231.40161z" fill-rule="evenodd"/><path fill="#f4b400" d="m475.62335 956.7757l-245.07086 0l245.07086 -231.40155z" fill-rule="evenodd"/><path fill="#ea4335" d="m230.55249 725.37415l245.07086 0l-245.07086 231.40155z" fill-rule="evenodd"/><path fill="#4285f4" d="m717.00525 955.44763l247.27557 0l-247.27557 230.01575z" fill-rule="evenodd"/><path fill="#0f9d58" d="m478.7769 956.77576l236.09451 0l-236.09451 225.51184z" fill-rule="evenodd"/><path fill="#ea4335" d="m-5.24147 954.8833l238.77165 0l-238.77165 229.54333z" fill-rule="evenodd"/><path fill="#ea4335" d="m953.82416 1182.172l-233.54333 0l233.54333 -218.01569z" fill-rule="evenodd"/><path fill="#4285f4" d="m717.7454 1185.8728l-244.189 0l244.189 -234.8031z" fill-rule="evenodd"/><path fill="#0f9d58" d="m480.37534 1183.6996l-253.44882 0l253.44882 -230.45667z" fill-rule="evenodd"/><path fill="#0f9d58" d="m953.43567 730.5526l-239.46454 0l0 -142.39368l239.46454 0z" fill-rule="evenodd"/><path fill="#f4b400" d="m714.3884 731.9096l-238.67715 0l0 -142.39374l238.67715 0z" fill-rule="evenodd"/><path fill="#ea4335" d="m476.0958 725.8308l-238.67715 0l0 -136.31494l238.67715 0z" fill-rule="evenodd"/><path fill="#4285f4" d="m237.40158 731.9096l-243.46457 0l0 -142.39374l243.46457 0z" fill-rule="evenodd"/><path fill="#f4b400" d="m232.93176 1183.6918l-237.57481 0l237.57481 -229.07092z" fill-rule="evenodd"/><path fill="#ea4335" d="m232.85301 957.5526l-237.41731 0l237.41731 -225.48029z" fill-rule="evenodd"/><path fill="#f4b400" d="m230.54593 953.1353l249.32285 0l-249.32285 230.55121z" fill-rule="evenodd"/><path fill="#4285f4" d="m-6.0577426 725.8649l245.32283 0l-245.29134 240.53546z" fill-rule="evenodd"/></g></svg>